<svg id="svg2" xmlns="http://www.w3.org/2000/svg" viewBox="0 0 681.22 681.22">
  <defs>
    <style>
      .cls-1 {
        fill: #ffdb00;
      }
    </style>
  </defs>
  <title>warn</title>
  <g id="layer1">
    <path id="path11-1" class="cls-1" d="M362.81,672.17a31.25,31.25,0,0,1-44.19,0L9.25,362.81a31.25,31.25,0,0,1,0-44.19L318.61,9.25a31.25,31.25,0,0,1,44.19,0L672.17,318.61a31.25,31.25,0,0,1,0,44.19Z" transform="translate(-0.1 -0.1)"/>
    <path id="path13-7" d="M666.27,324.51a22.94,22.94,0,0,1,0,32.41L356.91,666.27a22.94,22.94,0,0,1-32.41,0L15.15,356.91a22.94,22.94,0,0,1,0-32.41L324.51,15.15a22.94,22.94,0,0,1,32.41,0Z" transform="translate(-0.1 -0.1)"/>
    <path id="path15-4" class="cls-1" d="M657.44,333.34a10.43,10.43,0,0,1,0,14.73L348.08,657.44a10.43,10.43,0,0,1-14.73,0L24,348.08a10.43,10.43,0,0,1,0-14.73L333.34,24a10.43,10.43,0,0,1,14.73,0Z" transform="translate(-0.1 -0.1)"/>
  </g>
</svg>
