<svg id="svg2" xmlns="http://www.w3.org/2000/svg" width="109.01" height="108.99" viewBox="0 0 109.01 108.99"><defs><style>.cls-1{fill:#ffdb00;}</style></defs><title>warn</title><g id="layer1"><path id="path11-1" class="cls-1" d="M344.28,393.78a5,5,0,0,1-7.07,0l-49.49-49.5a5,5,0,0,1,0-7.07l49.5-49.49a5,5,0,0,1,7.07,0l49.5,49.5a5,5,0,0,1,0,7.07Z" transform="translate(-286.26 -286.25)"/><path id="path13-7" d="M392.84,338.15a3.68,3.68,0,0,1,0,5.18l-49.49,49.5a3.68,3.68,0,0,1-5.18,0l-49.5-49.5a3.68,3.68,0,0,1,0-5.18l49.49-49.5a3.68,3.68,0,0,1,5.18,0Z" transform="translate(-286.26 -286.25)"/><path id="path15-4" class="cls-1" d="M391.43,339.56a1.65,1.65,0,0,1,0,2.35l-49.5,49.5a1.65,1.65,0,0,1-2.35,0l-49.5-49.49a1.65,1.65,0,0,1,0-2.35l49.5-49.5a1.65,1.65,0,0,1,2.35,0Z" transform="translate(-286.26 -286.25)"/></g></svg>